<?xml version="1.0" encoding="iso-8859-1"?>
<!-- Uploaded to: SVG Repo, www.svgrepo.com, Generator: SVG Repo Mixer Tools -->
<!DOCTYPE svg PUBLIC "-//W3C//DTD SVG 1.1//EN" "http://www.w3.org/Graphics/SVG/1.1/DTD/svg11.dtd">
<svg fill="#000000" version="1.1" id="Capa_1" xmlns="http://www.w3.org/2000/svg" xmlns:xlink="http://www.w3.org/1999/xlink" 
	 width="800px" height="800px" viewBox="0 0 484.191 484.191"
	 xml:space="preserve">
<g>
	<g id="Layer_2_23_">
		<path d="M148.764,134.345v54.627c0,6.917,2.768,13.182,7.242,17.77c-5.205,69.643-33.025,79.159-23.905,85.527
			c2.214,1.547,29.269,2.549,63.693,3.007c12.255,8.124,28.526,13.073,46.384,13.073c0.012,0,0.024,0,0.036,0s0.024,0,0.036,0
			c17.857,0,34.129-4.949,46.383-13.073c34.426-0.458,61.48-1.46,63.693-3.007c9.121-6.368-18.699-15.885-23.904-85.527
			c4.475-4.588,7.242-10.853,7.242-17.77v-54.627c24.307-5.764,42.461-27.613,42.461-53.662c0-30.441-24.762-55.204-55.203-55.204
			c-7.273,0-14.361,1.444-20.992,4.241C288.669,11.324,266.517,0,242.239,0c-0.008,0-0.017,0.001-0.024,0.001S242.198,0,242.191,0
			C217.915,0,195.76,11.323,182.5,29.72c-6.631-2.797-13.719-4.241-20.992-4.241c-30.441,0-55.204,24.763-55.204,55.204
			C106.302,106.732,124.458,128.581,148.764,134.345z"/>
		<path d="M355.245,353.139c-15.734-5.674-31.676-13.451-41.283-19.252c-2.025-1.287-4.418-2.041-6.992-2.041
			c-3.484,0-6.645,1.373-8.984,3.599c-0.012,0.004-0.023,0.01-0.035,0.014c-15.102,14.765-43.016,19.207-52.52,19.207
			c-0.811,0-2.467,0.013-3.335,0.019c-0.868-0.006-2.524-0.019-3.336-0.019c-9.502,0-37.418-4.442-52.519-19.207
			c-0.011-0.004-0.023-0.01-0.034-0.014c-2.341-2.226-5.499-3.599-8.985-3.599c-2.574,0-4.967,0.754-6.991,2.041
			c-9.608,5.801-25.551,13.578-41.284,19.252c-49.987,18.023-72.469,36.404-72.469,48.943c0,12.514,0,82.109,0,82.109h180.771h0.252
			h4.595h4.596h0.251h180.771c0,0,0-69.598,0-82.109C427.714,389.543,405.231,371.162,355.245,353.139z M242.235,465.971
			c-0.007,0-0.015,0-0.021,0s-0.015,0-0.021,0c-6.267,0-11.347-5.078-11.347-11.348c0-6.264,5.08-11.346,11.347-11.346
			c0.007,0,0.015,0,0.021,0s0.015,0,0.021,0c6.268,0,11.348,5.082,11.348,11.346C253.583,460.893,248.503,465.971,242.235,465.971z
			 M242.235,427.129c-0.007,0-0.015-0.002-0.021-0.002s-0.015,0.002-0.021,0.002c-6.267,0-11.347-5.078-11.347-11.35
			c0-6.264,5.08-11.346,11.347-11.346c0.007,0,0.015,0.002,0.021,0.002s0.015-0.002,0.021-0.002c6.268,0,11.348,5.082,11.348,11.346
			C253.583,422.051,248.503,427.129,242.235,427.129z M242.235,389.26c-0.007,0-0.015-0.002-0.021-0.002s-0.015,0.002-0.021,0.002
			c-6.267,0-11.347-5.078-11.347-11.349c0-6.265,5.08-11.349,11.347-11.349c0.007,0,0.015,0.002,0.021,0.002
			s0.015-0.002,0.021-0.002c6.268,0,11.348,5.084,11.348,11.349C253.583,384.182,248.503,389.26,242.235,389.26z"/>
	</g>
</g>
</svg>